<svg width="33" height="32" viewBox="0 0 33 32" fill="none" xmlns="http://www.w3.org/2000/svg">
<g filter="url(#filter0_d_0_1293)">
<path fill-rule="evenodd" clip-rule="evenodd" d="M16.5001 23.75C22.9894 23.75 28.2501 18.4893 28.2501 12C28.2501 5.51065 22.9894 0.25 16.5001 0.25C14.9374 0.25 13.416 0.5556 12.0023 1.14181C10.5766 1.733 9.28191 2.60118 8.19159 3.6915C7.42913 4.45396 6.7753 5.31637 6.24886 6.25364L6.25 2.4999L6.24315 2.39813C6.19349 2.03206 5.8797 1.7499 5.5 1.7499C5.08579 1.7499 4.75 2.08569 4.75 2.4999V7.98498L4.75685 8.08675C4.80651 8.45283 5.1203 8.73498 5.5 8.73498H11.1014L11.2032 8.72813C11.5693 8.67847 11.8514 8.36468 11.8514 7.98498C11.8514 7.57077 11.5156 7.23498 11.1014 7.23498L7.42306 7.23393C7.90349 6.32096 8.52048 5.48393 9.25225 4.75216C10.2039 3.80047 11.3336 3.04294 12.5769 2.52741C13.8092 2.0164 15.1355 1.75 16.5001 1.75C22.161 1.75 26.7501 6.33908 26.7501 12C26.7501 17.6609 22.161 22.25 16.5001 22.25C13.5672 22.25 10.8352 21.0126 8.90355 18.8816C8.62536 18.5747 8.15106 18.5515 7.84417 18.8297C7.53728 19.1078 7.51401 19.5821 7.7922 19.889C10.0053 22.3305 13.1394 23.75 16.5001 23.75ZM17.1618 4.93594C17.1121 4.56986 16.7983 4.28771 16.4186 4.28771C16.0044 4.28771 15.6686 4.6235 15.6686 5.03771V11.6892L12.3263 15.0316L12.2536 15.1157C12.0358 15.4093 12.06 15.826 12.3263 16.0923C12.6192 16.3851 13.094 16.3851 13.3869 16.0923L17.1686 12.3106V5.03771L17.1618 4.93594Z" fill="#F9F9F9"/>
</g>
<defs>
<filter id="filter0_d_0_1293" x="0.75" y="0.25" width="31.5001" height="31.5" filterUnits="userSpaceOnUse" color-interpolation-filters="sRGB">
<feFlood flood-opacity="0" result="BackgroundImageFix"/>
<feColorMatrix in="SourceAlpha" type="matrix" values="0 0 0 0 0 0 0 0 0 0 0 0 0 0 0 0 0 0 127 0" result="hardAlpha"/>
<feOffset dy="4"/>
<feGaussianBlur stdDeviation="2"/>
<feComposite in2="hardAlpha" operator="out"/>
<feColorMatrix type="matrix" values="0 0 0 0 0 0 0 0 0 0 0 0 0 0 0 0 0 0 0.25 0"/>
<feBlend mode="normal" in2="BackgroundImageFix" result="effect1_dropShadow_0_1293"/>
<feBlend mode="normal" in="SourceGraphic" in2="effect1_dropShadow_0_1293" result="shape"/>
</filter>
</defs>
</svg>
